<svg xmlns="http://www.w3.org/2000/svg" xmlns:xlink="http://www.w3.org/1999/xlink" width="168" height="168" viewBox="0 0 168 168">
  <defs>
    <clipPath id="clip-path">
      <rect id="Rectangle_8559" data-name="Rectangle 8559" width="168" height="168" transform="translate(876 352)" fill="#cdcdcd"/>
    </clipPath>
  </defs>
  <g id="modal_img_1" transform="translate(-825 -754)">
    <g id="Mask_Group_692" data-name="Mask Group 692" transform="translate(-51 402)" clip-path="url(#clip-path)">
      <g id="undraw_Done_re_oak4" transform="translate(876 363.92)">
        <path id="Path_438" data-name="Path 438" d="M76.668,171.255a5.975,5.975,0,0,0,5.77-1.016c2.021-1.7,2.655-4.49,3.17-7.077l1.525-7.653-3.192,2.2a23.253,23.253,0,0,0-6.233,5.5c-1.59,2.29-2.283,5.416-1.006,7.893" transform="translate(-64.053 -38.959)" fill="#e6e6e6"/>
        <path id="Path_439" data-name="Path 439" d="M77.161,181.053a38.393,38.393,0,0,1-.533-8.852,13.923,13.923,0,0,1,2.684-7.3,12.141,12.141,0,0,1,3.115-2.823c.311-.2.6.3.288.493a11.543,11.543,0,0,0-4.566,5.509,18.5,18.5,0,0,0-.982,7.97c.1,1.624.323,3.238.544,4.849a.3.3,0,0,1-.2.351.287.287,0,0,1-.351-.2Z" transform="translate(-64.053 -38.959)" fill="#f2f2f2"/>
        <path id="Path_442" data-name="Path 442" d="M80.053,176.356a4.4,4.4,0,0,0,3.832,1.979c1.941-.092,3.558-1.446,5.013-2.732l4.306-3.8-2.85-.136a17.1,17.1,0,0,0-6.1.443,5.813,5.813,0,0,0-4.109,4.174" transform="translate(-64.053 -38.959)" fill="#e6e6e6"/>
        <path id="Path_443" data-name="Path 443" d="M76.025,182.736c1.934-3.423,4.178-7.227,8.188-8.443a9.136,9.136,0,0,1,3.444-.356c.366.032.274.6-.091.564a8.488,8.488,0,0,0-5.5,1.454,14.284,14.284,0,0,0-3.777,4.076c-.626.953-1.186,1.946-1.746,2.937C76.368,183.286,75.844,183.057,76.025,182.736Z" transform="translate(-64.053 -38.959)" fill="#f2f2f2"/>
        <path id="Path_141" data-name="Path 141" d="M230.813,140.482H124.162a1.241,1.241,0,0,1-1.24-1.24V40.2a1.241,1.241,0,0,1,1.24-1.24H230.813a1.241,1.241,0,0,1,1.24,1.24v99.043a1.241,1.241,0,0,1-1.24,1.24Z" transform="translate(-64.053 -38.959)" fill="#fff"/>
        <path id="Path_141-2" data-name="Path 141" d="M230.813,140.482H124.162a1.241,1.241,0,0,1-1.24-1.24V40.2a1.241,1.241,0,0,1,1.24-1.24H230.813a1.241,1.241,0,0,1,1.24,1.24v99.043a1.241,1.241,0,0,1-1.24,1.24ZM124.162,39.453a.745.745,0,0,0-.743.743v99.045a.745.745,0,0,0,.743.743H230.813a.744.744,0,0,0,.743-.743V40.2a.745.745,0,0,0-.743-.743Z" transform="translate(-64.053 -38.959)" fill="#cacaca"/>
        <path id="Path_142" data-name="Path 142" d="M174.557,64.7a.842.842,0,1,0,0,1.683h46.178a.842.842,0,0,0,0-1.683Z" transform="translate(-64.053 -38.959)" fill="#e4e4e4"/>
        <path id="Path_143" data-name="Path 143" d="M174.557,69.745a.842.842,0,0,0,0,1.683h23.575a.842.842,0,1,0,0-1.683Z" transform="translate(-64.053 -38.959)" fill="#e4e4e4"/>
        <path id="Path_142-2" data-name="Path 142" d="M134.2,96.9a.842.842,0,0,0,0,1.683H220.78a.842.842,0,1,0,0-1.683Z" transform="translate(-64.053 -38.959)" fill="#e4e4e4"/>
        <path id="Path_143-2" data-name="Path 143" d="M134.2,101.952a.842.842,0,1,0,0,1.683h63.981a.842.842,0,0,0,0-1.683Z" transform="translate(-64.053 -38.959)" fill="#e4e4e4"/>
        <path id="Path_142-3" data-name="Path 142" d="M134.2,106.887a.842.842,0,1,0,0,1.683H220.78a.842.842,0,1,0,0-1.683Z" transform="translate(-64.053 -38.959)" fill="#e4e4e4"/>
        <path id="Path_143-3" data-name="Path 143" d="M134.2,111.937a.842.842,0,0,0,0,1.683h63.981a.842.842,0,0,0,0-1.683Z" transform="translate(-64.053 -38.959)" fill="#e4e4e4"/>
        <path id="Path_142-4" data-name="Path 142" d="M134.2,117a.842.842,0,1,0,0,1.683H220.78a.842.842,0,1,0,0-1.683Z" transform="translate(-64.053 -38.959)" fill="#e4e4e4"/>
        <path id="Path_143-4" data-name="Path 143" d="M134.2,122.054a.842.842,0,1,0,0,1.683h63.981a.842.842,0,0,0,0-1.683Z" transform="translate(-64.053 -38.959)" fill="#e4e4e4"/>
        <path id="Path_38081" data-name="Path 38081" d="M147.909,80.153A12.091,12.091,0,1,1,160,68.062a12.091,12.091,0,0,1-12.091,12.091Z" transform="translate(-64.053 -38.959)" fill="#6c63ff"/>
        <path id="Path_38082" data-name="Path 38082" d="M111.207,125.869a3.022,3.022,0,0,0-3.69-2.8l-4-5.632-4.015,1.594,5.756,7.875a3.039,3.039,0,0,0,5.946-1.032Z" transform="translate(-64.053 -38.959)" fill="#a0616a"/>
        <path id="Path_38083" data-name="Path 38083" d="M103.418,125.452,91.325,109.764l4.531-14.241c.332-3.58,2.572-4.58,2.668-4.621l.145-.062,3.943,10.515-2.9,7.72,7.106,11.951Z" transform="translate(-64.053 -38.959)" fill="#3f3d56"/>
        <path id="Path_38084" data-name="Path 38084" d="M145.414,77.091a3.022,3.022,0,0,0-2.51,3.9l-5.306,4.42,1.9,3.88,7.406-6.347a3.039,3.039,0,0,0-1.489-5.848Z" transform="translate(-64.053 -38.959)" fill="#a0616a"/>
        <path id="Path_38085" data-name="Path 38085" d="M145.6,84.889l-14.706,13.27-14.548-3.417c-3.6-.054-4.765-2.211-4.813-2.3l-.073-.14,10.178-4.744,7.921,2.289,11.366-8.008Z" transform="translate(-64.053 -38.959)" fill="#3f3d56"/>
        <path id="Path_38086" data-name="Path 38086" d="M56.074,140.264h3.951l1.88-15.241H56.074Z" fill="#a0616a"/>
        <path id="Path_38087" data-name="Path 38087" d="M119.28,178.094H131.7v4.8h-8.934a3.484,3.484,0,0,1-3.484-3.484v-1.314Z" transform="translate(186.935 322.021) rotate(179.997)" fill="#2f2e41"/>
        <path id="Path_38088" data-name="Path 38088" d="M40.282,140.264h3.951l1.88-15.241H40.281Z" fill="#a0616a"/>
        <path id="Path_38089" data-name="Path 38089" d="M103.488,178.094h12.418v4.8h-8.934a3.484,3.484,0,0,1-3.484-3.484v-1.314Z" transform="translate(155.35 322.022) rotate(179.997)" fill="#2f2e41"/>
        <path id="Path_38090" data-name="Path 38090" d="M38.877,84.635,39.2,107.2l.323,29.651,7.09-.645L50.157,95.27,54.669,136.2h7.32l.737-41.253-2.578-9.024Z" fill="#2f2e41"/>
        <path id="Path_38091" data-name="Path 38091" d="M116.807,126.623a38.1,38.1,0,0,1-14.912-3.539l-.08-.04-.647-15.537c-.188-.549-3.885-11.383-4.511-14.827-.634-3.489,8.56-6.551,9.676-6.909l.253-2.807,10.3-1.11,1.306,3.591,3.7,1.386a1.828,1.828,0,0,1,1.133,2.148l-2.054,8.354,5.017,27.64-1.08.047A19.612,19.612,0,0,1,116.807,126.623Z" transform="translate(-64.053 -38.959)" fill="#3f3d56"/>
        <circle id="Ellipse_3667" data-name="Ellipse 3667" cx="7.418" cy="7.418" r="7.418" transform="matrix(0.877, -0.48, 0.48, 0.877, 38.021, 30.75)" fill="#a0616a"/>
        <path id="Path_38092" data-name="Path 38092" d="M106.133,79.84a2.448,2.448,0,0,0,4.223-1.36,2.485,2.485,0,0,0,0-.48c-.1-.911-.622-1.739-.5-2.7a1.416,1.416,0,0,1,.259-.663c1.127-1.509,3.771.675,4.834-.691.652-.837-.114-2.156.386-3.092.66-1.235,2.616-.626,3.843-1.3,1.365-.753,1.283-2.846.385-4.12a6.48,6.48,0,0,0-4.913-2.5,13.179,13.179,0,0,0-5.551,1.083,11.094,11.094,0,0,0-5.245,3.637,8.879,8.879,0,0,0-.9,7.56A14.245,14.245,0,0,0,106.133,79.84Z" transform="translate(-64.053 -38.959)" fill="#2f2e41"/>
        <path id="Path_38093" data-name="Path 38093" d="M158.313,183.083H64.3a.247.247,0,1,1,0-.493h94.013a.247.247,0,1,1,0,.493Z" transform="translate(-64.053 -38.959)" fill="#cacaca"/>
        <path id="Path_38094" data-name="Path 38094" d="M147.211,72.628a.861.861,0,0,1-.588-.231l-3.987-3.7a.864.864,0,1,1,1.175-1.266l3.377,3.137,6.681-6.681a.864.864,0,1,1,1.221,1.221l-7.27,7.27A.862.862,0,0,1,147.211,72.628Z" transform="translate(-64.053 -38.959)" fill="#fff"/>
      </g>
    </g>
  </g>
</svg>
