<svg width="103" height="30" viewBox="0 0 103 30" fill="none" xmlns="http://www.w3.org/2000/svg">
<path d="M15.9648 29H0.457031V0.992188H5.10547V25.0742H15.9648V29ZM31.1797 29.4688C27.1432 29.4688 23.9076 28.1602 21.4727 25.543C19.0508 22.9258 17.8398 19.5208 17.8398 15.3281C17.8398 10.8229 19.0768 7.22917 21.5508 4.54688C24.0247 1.86458 27.3841 0.523438 31.6289 0.523438C35.5612 0.523438 38.7253 1.82552 41.1211 4.42969C43.5299 7.03385 44.7344 10.4388 44.7344 14.6445C44.7344 19.2148 43.5039 22.8281 41.043 25.4844C38.582 28.1406 35.2943 29.4688 31.1797 29.4688ZM31.3945 4.60547C28.8294 4.60547 26.7396 5.5625 25.125 7.47656C23.5234 9.39062 22.7227 11.9102 22.7227 15.0352C22.7227 18.1471 23.5039 20.6536 25.0664 22.5547C26.6289 24.4557 28.6732 25.4062 31.1992 25.4062C33.8815 25.4062 35.9974 24.5013 37.5469 22.6914C39.0964 20.8815 39.8711 18.349 39.8711 15.0938C39.8711 11.7474 39.1159 9.16276 37.6055 7.33984C36.1081 5.51693 34.0378 4.60547 31.3945 4.60547ZM71.7266 27.0859C68.8099 28.6745 65.5612 29.4688 61.9805 29.4688C57.8398 29.4688 54.487 28.1797 51.9219 25.6016C49.3568 23.0234 48.0742 19.612 48.0742 15.3672C48.0742 11.0312 49.474 7.47656 52.2734 4.70312C55.0859 1.91667 58.6536 0.523438 62.9766 0.523438C66.0885 0.523438 68.7057 0.979167 70.8281 1.89062V6.67578C68.6797 5.24349 66.1211 4.52734 63.1523 4.52734C60.1706 4.52734 57.7227 5.51042 55.8086 7.47656C53.9076 9.44271 52.957 11.9883 52.957 15.1133C52.957 18.3294 53.7773 20.862 55.418 22.7109C57.0586 24.5469 59.2852 25.4648 62.0977 25.4648C64.0247 25.4648 65.6914 25.0938 67.0977 24.3516V17.6914H61.1992V13.7852H71.7266V27.0859ZM89.3047 29.4688C85.2682 29.4688 82.0326 28.1602 79.5977 25.543C77.1758 22.9258 75.9648 19.5208 75.9648 15.3281C75.9648 10.8229 77.2018 7.22917 79.6758 4.54688C82.1497 1.86458 85.5091 0.523438 89.7539 0.523438C93.6862 0.523438 96.8503 1.82552 99.2461 4.42969C101.655 7.03385 102.859 10.4388 102.859 14.6445C102.859 19.2148 101.629 22.8281 99.168 25.4844C96.707 28.1406 93.4193 29.4688 89.3047 29.4688ZM89.5195 4.60547C86.9544 4.60547 84.8646 5.5625 83.25 7.47656C81.6484 9.39062 80.8477 11.9102 80.8477 15.0352C80.8477 18.1471 81.6289 20.6536 83.1914 22.5547C84.7539 24.4557 86.7982 25.4062 89.3242 25.4062C92.0065 25.4062 94.1224 24.5013 95.6719 22.6914C97.2214 20.8815 97.9961 18.349 97.9961 15.0938C97.9961 11.7474 97.2409 9.16276 95.7305 7.33984C94.2331 5.51693 92.1628 4.60547 89.5195 4.60547Z" fill="white"/>
</svg>
